<svg width="387" height="66" viewBox="0 0 387 66" fill="none" xmlns="http://www.w3.org/2000/svg">
<g clip-path="url(#clip0_231_590)">
<path d="M32.55 40.3098C30.6849 39.2846 28.7088 38.476 26.66 37.8998C24.58 37.2998 22.62 36.7498 20.78 36.2498C19.1823 35.8453 17.6503 35.2157 16.23 34.3798C15.6893 34.088 15.238 33.6547 14.9245 33.1263C14.611 32.5979 14.447 31.9942 14.45 31.3798C14.4526 30.8149 14.5815 30.2577 14.8272 29.749C15.0729 29.2404 15.4292 28.793 15.87 28.4398C17.1271 27.5075 18.68 27.0633 20.24 27.1898C21.6691 27.1523 23.088 27.4395 24.39 28.0298C25.4937 28.5796 26.5391 29.2396 27.51 29.9998C28.3966 30.6866 29.3178 31.3274 30.27 31.9198C31.1973 32.4849 32.2641 32.7793 33.35 32.7698C33.976 32.7991 34.6016 32.7036 35.1905 32.489C35.7793 32.2744 36.3196 31.945 36.78 31.5198C37.2309 31.0566 37.5795 30.504 37.8035 29.8977C38.0274 29.2914 38.1216 28.6448 38.08 27.9998C38.0892 27.0765 37.9094 26.161 37.5517 25.3098C37.194 24.4585 36.6659 23.6894 36 23.0498C34.3161 21.4909 32.2824 20.3591 30.07 19.7498C27.0873 18.8925 23.9928 18.488 20.89 18.5498C17.005 18.4363 13.1355 19.0852 9.5 20.4598C6.69244 21.523 4.25857 23.3866 2.5 25.8198C0.94745 28.0878 0.13685 30.7816 0.18 33.5298C0.0968011 35.8235 0.733183 38.0858 2 39.9998C3.15992 41.6763 4.70697 43.0484 6.51 43.9998C8.38745 44.9679 10.3573 45.7451 12.39 46.3198C14.47 46.9198 16.44 47.4598 18.28 47.9698C19.8719 48.3729 21.4023 48.9884 22.83 49.7998C23.361 50.064 23.8085 50.4702 24.1227 50.9733C24.4369 51.4764 24.6056 52.0567 24.61 52.6498C24.6087 53.2118 24.4705 53.7649 24.2074 54.2615C23.9443 54.7581 23.5642 55.1831 23.1 55.4998C21.6567 56.3871 19.969 56.7933 18.28 56.6598C15.3284 56.5706 12.4149 55.9683 9.67 54.8798C6.27235 53.5993 3.0288 51.9423 0 49.9398L0 61.2598C2.60223 62.4888 5.31852 63.4601 8.11 64.1598C11.265 64.9276 14.5031 65.3005 17.75 65.2698C21.6918 65.3717 25.6192 64.7549 29.34 63.4498C32.1645 62.4687 34.6421 60.6861 36.47 58.3198C38.0772 56.1229 38.9234 53.4615 38.88 50.7398C38.9886 48.4474 38.3614 46.1804 37.09 44.2698C35.892 42.6268 34.3405 41.2735 32.55 40.3098Z" fill="#184896"/>
<path d="M83.4575 53.24C81.9696 52.7906 80.6023 52.0112 79.4575 50.96C77.4996 49.2135 75.7086 47.2885 74.1075 45.21C73.1875 44.07 72.1075 42.76 71.0175 41.28L82.4375 31.28C83.5053 30.3577 84.423 29.2747 85.1575 28.07C85.7893 26.9875 86.1142 25.7533 86.0975 24.5C86.1227 23.7125 85.9897 22.9279 85.7063 22.1928C85.4229 21.4576 84.9948 20.7868 84.4475 20.22C83.8843 19.6537 83.2093 19.211 82.4655 18.92C81.7217 18.6291 80.9255 18.4962 80.1275 18.53C78.8375 18.539 77.5685 18.858 76.4275 19.46C75.0239 20.228 73.7458 21.206 72.6375 22.36L58.3175 36.58V0H44.9375V64.2H58.3175V47C59.7242 49 61.0575 50.7767 62.3175 52.33C64.3381 55.0062 66.5721 57.5144 68.9975 59.83C70.7391 61.5306 72.7712 62.9057 74.9975 63.89C76.9828 64.6933 79.1059 65.1009 81.2475 65.09C82.3495 65.0949 83.45 65.0079 84.5375 64.83C85.569 64.6521 86.5759 64.3533 87.5375 63.94V53.24C86.1926 53.5262 84.8024 53.5262 83.4575 53.24Z" fill="#184896"/>
<path d="M100.409 0.450103C97.789 0.450103 95.8256 1.08677 94.519 2.3601C93.8597 3.00076 93.3413 3.77188 92.997 4.6242C92.6526 5.47652 92.4898 6.3913 92.519 7.3101C92.4901 8.23631 92.6529 9.15849 92.997 10.0189C93.3412 10.8792 93.8593 11.6593 94.519 12.3101C95.8523 13.5901 97.8156 14.2301 100.409 14.2301C102.532 14.378 104.628 13.6888 106.249 12.3101C106.911 11.6611 107.431 10.8814 107.775 10.0206C108.119 9.15975 108.281 8.23668 108.249 7.3101C108.281 6.39099 108.119 5.47548 107.774 4.6228C107.43 3.77011 106.91 2.99926 106.249 2.3601C104.624 0.988728 102.53 0.303682 100.409 0.450103Z" fill="#184896"/>
<path d="M93.7188 19.3501V64.2001H107.089V19.3501C102.696 20.4203 98.1112 20.4203 93.7188 19.3501Z" fill="#184896"/>
<path d="M132.862 53.41C132.332 53.4613 131.797 53.3876 131.3 53.1948C130.804 53.002 130.359 52.6956 130.002 52.3C129.432 51.56 129.152 50.2 129.152 48.24V0H115.742V50.83C115.742 55.29 116.679 58.81 118.552 61.39C120.426 63.97 123.622 65.2633 128.142 65.27C130.91 65.2997 133.648 64.6906 136.142 63.49V52.88L134.492 53.24C133.956 53.3535 133.41 53.4104 132.862 53.41Z" fill="#184896"/>
<path d="M157.472 53.41C156.936 53.4661 156.396 53.3948 155.893 53.2019C155.391 53.0089 154.942 52.6999 154.582 52.3C154.012 51.56 153.732 50.2 153.732 48.24V0H140.352V50.83C140.352 55.29 141.288 58.81 143.162 61.39C145.035 63.97 148.232 65.2633 152.752 65.27C155.52 65.2997 158.257 64.6906 160.752 63.49V52.88L159.102 53.24C158.566 53.3535 158.019 53.4104 157.472 53.41Z" fill="#184896"/>
<path d="M201.481 20.4599C198.984 19.1818 196.215 18.5265 193.411 18.5499C191.201 18.5409 189.01 18.948 186.951 19.7499C184.893 20.558 183.047 21.8232 181.551 23.4499C180.882 24.1875 180.286 24.9878 179.771 25.8399V19.6199H166.391V64.1999H179.771V40.6599C179.695 38.8122 180.128 36.9792 181.021 35.3599C181.779 34.0269 182.908 32.9429 184.271 32.2399C185.612 31.562 187.098 31.2188 188.601 31.2399C189.953 31.2203 191.288 31.5437 192.481 32.1799C193.655 32.8194 194.604 33.8037 195.201 34.9999C195.913 36.568 196.255 38.2787 196.201 39.9999V64.1999H209.661V37.8099C209.661 33.1433 208.917 29.4133 207.431 26.6199C206.139 23.9955 204.059 21.8413 201.481 20.4599Z" fill="#184896"/>
<path d="M251.998 21.36C248.043 19.4882 243.719 18.5282 239.343 18.5507C234.968 18.5732 230.654 19.5777 226.718 21.49C223.222 23.3763 220.355 26.2441 218.468 29.74C216.468 33.5755 215.474 37.8557 215.578 42.18C215.468 46.4737 216.504 50.7192 218.578 54.48C220.524 57.8984 223.422 60.6777 226.918 62.48C230.785 64.4256 235.071 65.3906 239.398 65.29C243.829 65.4103 248.217 64.3984 252.148 62.35C255.667 60.4415 258.544 57.5368 260.418 54C262.412 50.176 263.409 45.9114 263.318 41.6C263.432 37.3059 262.397 33.0594 260.318 29.3C258.366 25.9088 255.477 23.1521 251.998 21.36ZM247.898 48.15C247.129 49.8327 245.889 51.2568 244.328 52.25C242.796 53.2126 241.017 53.7093 239.208 53.68C237.486 53.6988 235.795 53.2196 234.338 52.3C232.836 51.3222 231.645 49.934 230.908 48.3C230.027 46.3407 229.6 44.2076 229.658 42.06C229.594 39.8616 230.039 37.678 230.958 35.68C231.738 34.0193 232.955 32.602 234.478 31.58C235.974 30.6411 237.7 30.1356 239.466 30.1197C241.231 30.1038 242.966 30.5782 244.478 31.49C245.981 32.4674 247.172 33.8557 247.908 35.49C248.795 37.4477 249.222 39.582 249.158 41.73C249.241 43.9346 248.823 46.1293 247.938 48.15H247.898Z" fill="#184896"/>
<path d="M301.656 25.46C300.745 23.757 299.447 22.2912 297.866 21.18C295.115 19.3426 291.853 18.422 288.546 18.55C284.918 18.4801 281.35 19.4894 278.296 21.45C275.241 23.4562 272.814 26.2849 271.296 29.61C269.568 33.5063 268.731 37.7392 268.846 42C268.737 46.2806 269.588 50.5313 271.336 54.44C272.826 57.7015 275.207 60.475 278.206 62.44C281.1 64.3117 284.481 65.2891 287.926 65.25C291.356 65.3297 294.72 64.2984 297.516 62.31C299.157 61.1082 300.56 59.613 301.656 57.9V64.2H315.126V0H301.656V25.46ZM299.206 50.74C298.386 51.6254 297.384 52.3226 296.269 52.7835C295.154 53.2444 293.952 53.4582 292.746 53.41C290.947 53.4596 289.174 52.9685 287.656 52C286.179 50.9792 285.007 49.5757 284.266 47.94C283.391 46.0205 282.957 43.9293 282.996 41.82C282.938 39.6605 283.362 37.5152 284.236 35.54C284.994 33.8758 286.182 32.4434 287.676 31.39C288.688 30.6675 289.843 30.1692 291.063 29.9285C292.283 29.6878 293.54 29.7102 294.751 29.9941C295.961 30.2781 297.097 30.8171 298.083 31.5752C299.069 32.3332 299.881 33.2929 300.466 34.39C301.271 35.9313 301.67 37.6519 301.626 39.39V43.76C301.75 46.3116 300.883 48.8122 299.206 50.74Z" fill="#184896"/>
<path d="M347.941 55.2901C345.401 55.4019 342.868 54.9262 340.541 53.9001C338.708 52.9888 337.256 51.4586 336.441 49.5801C335.887 48.2846 335.517 46.9181 335.341 45.5201C337.121 45.9101 338.921 46.2301 340.721 46.4601C343.81 46.8728 346.932 46.9766 350.041 46.7701C352.749 46.603 355.412 46.0055 357.931 45.0001C360.1 44.1634 361.996 42.7447 363.411 40.9001C364.8 38.9528 365.503 36.6 365.411 34.2101C365.419 31.4514 364.612 28.7517 363.091 26.4501C361.398 23.951 359.053 21.9626 356.311 20.7001C352.859 19.1442 349.096 18.3985 345.311 18.5201C340.916 18.4165 336.569 19.4499 332.691 21.5201C329.159 23.4769 326.277 26.4248 324.401 30.0001C322.362 33.9666 321.351 38.3815 321.461 42.8401C321.461 49.9801 323.541 55.5101 327.701 59.4301C331.861 63.3501 337.895 65.3101 345.801 65.3101C349.218 65.3285 352.622 64.8879 355.921 64.0001C358.649 63.3037 361.274 62.2548 363.731 60.8801V51.6301C361.298 52.82 358.739 53.7324 356.101 54.3501C353.427 54.9774 350.688 55.2929 347.941 55.2901ZM340.051 29.7401C341.579 28.7563 343.364 28.2449 345.181 28.2701C346.96 28.153 348.721 28.69 350.131 29.7801C350.677 30.2213 351.116 30.7791 351.417 31.4125C351.718 32.0459 351.873 32.7388 351.871 33.4401C351.891 34.0446 351.762 34.6446 351.497 35.1883C351.233 35.7319 350.839 36.2028 350.351 36.5601C349.058 37.4357 347.559 37.9595 346.001 38.0801C343.806 38.3123 341.59 38.282 339.401 37.9901C338.171 37.8401 336.861 37.6401 335.501 37.3801C335.69 36.3197 335.995 35.2834 336.411 34.2901C337.146 32.4458 338.413 30.8618 340.051 29.7401Z" fill="#184896"/>
<path d="M378.682 65.2801C383.006 65.2801 386.512 61.7745 386.512 57.4501C386.512 53.1257 383.006 49.6201 378.682 49.6201C374.357 49.6201 370.852 53.1257 370.852 57.4501C370.852 61.7745 374.357 65.2801 378.682 65.2801Z" fill="#049669"/>
</g>
<defs>
<clipPath id="clip0_231_590">
<rect width="386.51" height="65.27" fill="white"/>
</clipPath>
</defs>
</svg>
